PathFileType	4	(X/Y/Z) shrug_2kg_3.trc																										
DataRate	CameraRate	NumFrames	NumMarkers	Units	OrigDataRate	OrigDataStartFrame	OrigNumFrames																					
100	100	19	9	mm	100	70	556																					
Frame#	Time	gu			centelbow			EpL			centpxt8			centijc7			ij			ts			aa			ai		
		X1	Y1	Z1	X2	Y2	Z2	X3	Y3	Z3	X4	Y4	Z4	X5	Y5	Z5	X6	Y6	Z6	X7	Y7	Z7	X8	Y8	Z8	X9	Y9	Z9  
69	0.69	-100.789	-9.882	162.262	-159.167	-249.259	178.837	-144.577	-246.715	207.474	-46.816	-153.158	-8.669	-46.816	31.938	-8.669	0	0	0	-135.513	39.092	44.589	-122.764	29.084	162.75	-168.218	-69.609	44.172
70	0.7	-100.795	-9.733	162.267	-159.044	-249.143	178.832	-144.456	-246.592	207.47	-46.816	-153.158	-8.669	-46.816	31.938	-8.669	0	0	0	-135.362	39.14	44.627	-122.622	29.145	162.79	-168.018	-69.575	44.213
71	0.71	-100.791	-9.515	162.288	-158.882	-248.964	178.848	-144.292	-246.405	207.483	-46.816	-153.158	-8.669	-46.816	31.938	-8.669	0	0	0	-135.366	39.3	44.68	-122.63	29.314	162.844	-167.955	-69.435	44.263
72	0.72	-100.781	-9.444	162.218	-158.794	-248.913	178.756	-144.192	-246.355	207.386	-46.816	-153.158	-8.669	-46.816	31.938	-8.669	0	0	0	-135.489	39.333	44.734	-122.74	29.341	162.896	-168.051	-69.411	44.312
73	0.73	-100.751	-9.639	162.057	-158.822	-249.097	178.545	-144.207	-246.553	207.17	-46.816	-153.158	-8.669	-46.816	31.938	-8.669	0	0	0	-135.571	39.159	44.794	-122.808	29.148	162.954	-168.166	-69.574	44.364
74	0.74	-100.702	-9.977	161.983	-158.893	-249.409	178.43	-144.276	-246.877	207.055	-46.816	-153.158	-8.669	-46.816	31.938	-8.669	0	0	0	-135.517	38.949	44.845	-122.762	28.929	163.005	-168.158	-69.77	44.41
75	0.75	-100.658	-10.186	162.174	-158.896	-249.607	178.621	-144.291	-247.074	207.251	-46.816	-153.158	-8.669	-46.816	31.938	-8.669	0	0	0	-135.376	38.918	44.862	-122.645	28.911	163.026	-168.017	-69.802	44.433
76	0.76	-100.61	-10.161	162.505	-158.795	-249.593	178.964	-144.205	-247.051	207.602	-46.816	-153.158	-8.669	-46.816	31.938	-8.669	0	0	0	-135.288	39.048	44.875	-122.577	29.059	163.042	-167.888	-69.684	44.451
77	0.77	-100.545	-10.022	162.675	-158.661	-249.472	179.126	-144.077	-246.926	207.766	-46.816	-153.158	-8.669	-46.816	31.938	-8.669	0	0	0	-135.338	39.162	44.916	-122.635	29.174	163.084	-167.899	-69.582	44.486
78	0.78	-100.514	-9.884	162.63	-158.597	-249.344	179.055	-144.012	-246.799	207.695	-46.816	-153.158	-8.669	-46.816	31.938	-8.669	0	0	0	-135.466	39.208	44.935	-122.76	29.212	163.102	-168.007	-69.542	44.495
79	0.79	-100.568	-9.768	162.583	-158.628	-249.234	178.994	-144.044	-246.689	207.634	-46.816	-153.158	-8.669	-46.816	31.938	-8.669	0	0	0	-135.538	39.268	44.887	-122.818	29.276	163.053	-168.058	-69.488	44.451
80	0.8	-100.683	-9.675	162.681	-158.707	-249.149	179.095	-144.127	-246.601	207.737	-46.816	-153.158	-8.669	-46.816	31.938	-8.669	0	0	0	-135.486	39.368	44.821	-122.75	29.391	162.986	-167.981	-69.396	44.4
81	0.81	-100.792	-9.642	162.803	-158.794	-249.122	179.213	-144.215	-246.573	207.856	-46.816	-153.158	-8.669	-46.816	31.938	-8.669	0	0	0	-135.393	39.471	44.834	-122.658	29.5	163	-167.874	-69.296	44.417
82	0.82	-100.813	-9.731	162.799	-158.856	-249.203	179.186	-144.272	-246.66	207.826	-46.816	-153.158	-8.669	-46.816	31.938	-8.669	0	0	0	-135.36	39.542	44.976	-122.638	29.557	163.142	-167.852	-69.223	44.545
83	0.83	-100.703	-9.926	162.764	-158.834	-249.379	179.118	-144.243	-246.847	207.756	-46.816	-153.158	-8.669	-46.816	31.938	-8.669	0	0	0	-135.371	39.571	45.171	-122.649	29.566	163.335	-167.883	-69.187	44.723
84	0.84	-100.559	-10.072	162.813	-158.717	-249.52	179.142	-144.123	-246.993	207.779	-46.816	-153.158	-8.669	-46.816	31.938	-8.669	0	0	0	-135.378	39.585	45.289	-122.648	29.566	163.452	-167.894	-69.172	44.831
85	0.85	-100.52	-10.041	162.843	-158.59	-249.511	179.165	-143.997	-246.98	207.802	-46.816	-153.158	-8.669	-46.816	31.938	-8.669	0	0	0	-135.393	39.601	45.29	-122.661	29.577	163.452	-167.886	-69.163	44.825
86	0.86	-100.574	-9.96	162.685	-158.528	-249.457	179.018	-143.928	-246.92	207.651	-46.816	-153.158	-8.669	-46.816	31.938	-8.669	0	0	0	-135.405	39.584	45.201	-122.663	29.563	163.362	-167.871	-69.188	44.738
87	0.87	-100.615	-10.071	162.327	-158.528	-249.578	178.667	-143.911	-247.042	207.291	-46.816	-153.158	-8.669	-46.816	31.938	-8.669	0	0	0	-135.418	39.531	45.064	-122.634	29.518	163.221	-167.866	-69.246	44.617
